<?xml version="1.0" encoding="UTF-8"?>
<svg width="804px" height="682px" viewBox="0 0 804 682" version="1.1" xmlns="http://www.w3.org/2000/svg" xmlns:xlink="http://www.w3.org/1999/xlink">
    <title>Untitled</title>
    <g id="Page-1" stroke="none" stroke-width="1" fill="none" fill-rule="evenodd">
        <g id="Mobile-Gaming-color">
            <path d="M560.14,208.29 C449.45,133.45 195.16,-65.79 62,50.14 C-71.16,166.07 1.75,722.74 394,662.8 C541.36,640.28 764,627.85 795.22,558.8 C847.12,443.94 629.25,255 560.14,208.29 Z" id="Path-141" fill="#E9E8E8" fill-rule="nonzero"></path>
            <path d="M486.58,157.08 L486.58,54.23 C486.546934,24.7296102 462.64039,0.823066039 433.14,0.79 L194.39,0.79 C164.911419,0.856082864 141.038489,24.7513703 141,54.23 L141,96 L139,96 L139,132 L141,132 L141,140.39 L139,140.39 L139,197.09 L141,197.09 L141,199.22 L139,199.22 L139,255.93 L141,255.93 L141,627.77 C141.033066,657.27039 164.93961,681.176934 194.44,681.21 L433.14,681.21 C462.64039,681.176934 486.546934,657.27039 486.58,627.77 L486.58,239.77 L488.58,239.77 L488.58,157.08 L486.58,157.08 Z" id="Path" fill="#1D252F" fill-rule="nonzero"></path>
            <path d="M464.71,50.47 L464.71,635.29 C464.71,648.75 453.87,659.79 440.28,660.47 C439.853333,660.47 439.413333,660.47 438.96,660.47 L188.57,660.47 C188.12,660.47 187.68,660.47 187.24,660.47 C173.65,659.79 162.81,648.75 162.81,635.29 L162.81,50.47 C162.81,36.56 174.37,25.26 188.57,25.26 L231.9,25.26 L231.9,30.39 C232.009831,39.8248715 239.74508,47.3855396 249.18,47.28 L378.35,47.28 C387.781034,47.3799774 395.510155,39.8209242 395.62,30.39 L395.62,25.26 L439,25.26 C453.16,25.26 464.71,36.56 464.71,50.47 Z" id="Path" fill="#9ED4C0" fill-rule="nonzero"></path>
            <circle id="Oval" fill="#FFFFFF" fill-rule="nonzero" cx="356.08" cy="29.29" r="4.03"></circle>
            <rect id="Rectangle" fill="#FFFFFF" fill-rule="nonzero" x="271.77" y="25.26" width="72.47" height="8.06" rx="4.03"></rect>
            <rect id="Rectangle" fill="#1D252F" fill-rule="nonzero" x="312.41" y="523.63" width="59.76" height="79.57"></rect>
            <path d="M369.07,587.37 L315.51,587.37 L315.51,542.37 C315.51,527.58 327.51,491.91 342.29,491.91 L342.29,491.91 C357.08,491.91 369.07,527.58 369.07,542.37 L369.07,587.37 Z" id="Path" fill="#1D252F" fill-rule="nonzero"></path>
            <path d="M327.07,521.93 C327.07,515.78 333.88,499.87 342.29,499.87 L342.29,499.87 C350.7,499.87 357.51,515.46 357.51,521.93 L327.07,521.93 Z" id="Path" fill="#FFFFFF" fill-rule="nonzero"></path>
            <rect id="Rectangle" fill="#1D252F" fill-rule="nonzero" x="378.97" y="541.62" width="4.53" height="12.45"></rect>
            <rect id="Rectangle" fill="#1D252F" fill-rule="nonzero" x="381.4" y="538.73" width="1.64" height="6.12"></rect>
            <rect id="Rectangle" fill="#1D252F" fill-rule="nonzero" x="379.28" y="538.73" width="1.64" height="6.12"></rect>
            <rect id="Rectangle" fill="#1D252F" fill-rule="nonzero" x="300.81" y="541.62" width="4.53" height="12.45"></rect>
            <rect id="Rectangle" fill="#1D252F" fill-rule="nonzero" x="303.25" y="538.73" width="1.64" height="6.12"></rect>
            <rect id="Rectangle" fill="#1D252F" fill-rule="nonzero" x="301.13" y="538.73" width="1.64" height="6.12"></rect>
            <polygon id="Path" fill="#1D252F" fill-rule="nonzero" points="273.2 598.72 294.59 545.15 389.99 545.15 411.38 598.72"></polygon>
            <rect id="Rectangle" fill="#FFFFFF" fill-rule="nonzero" x="372.14" y="556.77" width="4.53" height="30.99"></rect>
            <rect id="Rectangle" fill="#FFFFFF" fill-rule="nonzero" x="307.97" y="556.77" width="4.53" height="30.99"></rect>
            <polygon id="Path" fill="#1D252F" fill-rule="nonzero" points="366.39 612.67 341.14 607.27 318.02 612.67 318.02 602.74 366.39 602.74"></polygon>
            <rect id="Rectangle" fill="#1D252F" fill-rule="nonzero" x="381.06" y="456.7" width="2" height="61.13"></rect>
            <rect id="Rectangle" fill="#1D252F" fill-rule="nonzero" x="301.69" y="456.7" width="2" height="61.13"></rect>
            <path d="M381.06,401.52 L381.06,430.52 L383.06,430.52 L383.06,401.73 C382.38,401.69 381.71,401.62 381.06,401.52 Z" id="Path" fill="#1D252F" fill-rule="nonzero"></path>
            <rect id="Rectangle" fill="#1D252F" fill-rule="nonzero" x="301.69" y="386.62" width="2" height="43.9"></rect>
            <path d="M383.06,351.13 L383.06,343.46 L381.06,343.46 L381.06,351.46 C381.72,351.34 382.39,351.22 383.06,351.13 Z" id="Path" fill="#1D252F" fill-rule="nonzero"></path>
            <rect id="Rectangle" fill="#1D252F" fill-rule="nonzero" x="301.69" y="343.46" width="2" height="24.37"></rect>
            <rect id="Rectangle" fill="#1D252F" fill-rule="nonzero" x="204.92" y="111.75" width="46.36" height="46.36" rx="17.52"></rect>
            <rect id="Rectangle" fill="#FFD800" fill-rule="nonzero" x="216.91" y="123.74" width="22.38" height="22.38" rx="11.19"></rect>
            <path d="M217.82,122.35 C220.719482,119.976441 224.352904,118.682829 228.1,118.68997 L228.1,118.68997 C229.928545,118.687905 231.744233,118.995591 233.47,119.6" id="Path" stroke="#FFFFFF" stroke-width="1.32" stroke-linecap="round" stroke-linejoin="round"></path>
            <path d="M219.349994,148.62 C214.674168,145.638765 211.845428,140.475372 211.849994,134.93 L211.849994,134.93 C211.849994,132.582348 212.358258,130.262523 213.34,128.13" id="Path" stroke="#FFFFFF" stroke-width="1.32" stroke-linecap="round" stroke-linejoin="round"></path>
            <path d="M241.28,125.44 C243.276065,128.201074 244.347197,131.522985 244.340037,134.93 L244.340037,134.93 C244.348535,138.91662 242.884967,142.766053 240.23,145.74" id="Path" stroke="#FFFFFF" stroke-width="1.32" stroke-linecap="round" stroke-linejoin="round"></path>
            <line x1="244.79" y1="150.66" x2="250.11" y2="155.98" id="Path" stroke="#1D252F" stroke-width="1.98" stroke-linecap="round"></line>
            <rect id="Rectangle" fill="#1D252F" fill-rule="nonzero" x="243.01" y="148.92" width="5.65" height="5.65"></rect>
            <line x1="211.44" y1="151.95" x2="206.13" y2="157.26" id="Path" stroke="#1D252F" stroke-width="1.98" stroke-linecap="round"></line>
            <rect id="Rectangle" fill="#1D252F" fill-rule="nonzero" transform="translate(210.365000, 152.985000) rotate(90.000000) translate(-210.365000, -152.985000) " x="207.54" y="150.16" width="5.65" height="5.65"></rect>
            <line x1="210.82" y1="119.26" x2="205.51" y2="113.94" id="Path" stroke="#1D252F" stroke-width="1.98" stroke-linecap="round"></line>
            <rect id="Rectangle" fill="#1D252F" fill-rule="nonzero" transform="translate(209.785000, 118.175000) rotate(180.000000) translate(-209.785000, -118.175000) " x="206.96" y="115.35" width="5.65" height="5.65"></rect>
            <line x1="243.76" y1="117.64" x2="249.07" y2="112.33" id="Path" stroke="#1D252F" stroke-width="1.98" stroke-linecap="round"></line>
            <rect id="Rectangle" fill="#1D252F" fill-rule="nonzero" transform="translate(244.835000, 116.605000) rotate(-90.000000) translate(-244.835000, -116.605000) " x="242.01" y="113.78" width="5.65" height="5.65"></rect>
            <rect id="Rectangle" fill="#1D252F" fill-rule="nonzero" transform="translate(252.680000, 233.900000) rotate(-90.000000) translate(-252.680000, -233.900000) " x="229.5" y="210.72" width="46.36" height="46.36" rx="17.52"></rect>
            <rect id="Rectangle" fill="#FF0094" fill-rule="nonzero" transform="translate(252.680000, 233.900000) rotate(-90.000000) translate(-252.680000, -233.900000) " x="241.49" y="222.71" width="22.38" height="22.38" rx="11.19"></rect>
            <path d="M240.1,244.18 C237.726441,241.280518 236.432829,237.647096 236.43997,233.9 L236.43997,233.9 C236.437905,232.071455 236.745591,230.255767 237.35,228.53" id="Path" stroke="#FFFFFF" stroke-width="1.32" stroke-linecap="round" stroke-linejoin="round"></path>
            <path d="M266.38,242.65 C263.396122,247.323007 258.234413,250.150824 252.69,250.15 L252.69,250.15 C250.339112,250.150235 248.015991,249.641946 245.88,248.66" id="Path" stroke="#FFFFFF" stroke-width="1.32" stroke-linecap="round" stroke-linejoin="round"></path>
            <path d="M243.19,220.72 C245.954154,218.722545 249.279677,217.651376 252.69,217.66 L252.69,217.66 C256.673175,217.653929 260.518622,219.117335 263.49,221.77" id="Path" stroke="#FFFFFF" stroke-width="1.32" stroke-linecap="round" stroke-linejoin="round"></path>
            <line x1="268.42" y1="217.21" x2="273.73" y2="211.89" id="Path" stroke="#1D252F" stroke-width="1.98" stroke-linecap="round"></line>
            <rect id="Rectangle" fill="#1D252F" fill-rule="nonzero" transform="translate(269.495000, 216.165000) rotate(-90.000000) translate(-269.495000, -216.165000) " x="266.67" y="213.34" width="5.65" height="5.65"></rect>
            <line x1="269.7" y1="250.56" x2="275.01" y2="255.87" id="Path" stroke="#1D252F" stroke-width="1.98" stroke-linecap="round"></line>
            <rect id="Rectangle" fill="#1D252F" fill-rule="nonzero" x="267.91" y="248.81" width="5.65" height="5.65"></rect>
            <line x1="237.01" y1="251.18" x2="231.7" y2="256.49" id="Path" stroke="#1D252F" stroke-width="1.98" stroke-linecap="round"></line>
            <rect id="Rectangle" fill="#1D252F" fill-rule="nonzero" transform="translate(235.935000, 252.215000) rotate(90.000000) translate(-235.935000, -252.215000) " x="233.11" y="249.39" width="5.65" height="5.65"></rect>
            <line x1="235.39" y1="218.24" x2="230.08" y2="212.93" id="Path" stroke="#1D252F" stroke-width="1.98" stroke-linecap="round"></line>
            <rect id="Rectangle" fill="#1D252F" fill-rule="nonzero" transform="translate(234.355000, 217.165000) rotate(-180.000000) translate(-234.355000, -217.165000) " x="231.53" y="214.34" width="5.65" height="5.65"></rect>
            <rect id="Rectangle" fill="#1D252F" fill-rule="nonzero" transform="translate(210.359798, 336.225850) rotate(21.690000) translate(-210.359798, -336.225850) " x="187.179798" y="313.04585" width="46.36" height="46.36" rx="17.52"></rect>
            <rect id="Rectangle" fill="#00FF26" fill-rule="nonzero" transform="translate(210.359798, 336.225850) rotate(21.690000) translate(-210.359798, -336.225850) " x="199.169798" y="325.03585" width="22.38" height="22.38" rx="11.19"></rect>
            <path d="M205.45,320.74 C209.022487,319.605491 212.877639,319.743302 216.36,321.13 L216.36,321.13 C218.057709,321.817642 219.626593,322.788051 221,324" id="Path" stroke="#FFFFFF" stroke-width="1.32" stroke-linecap="round" stroke-linejoin="round"></path>
            <path d="M197.17,345.72 C193.922384,341.220787 193.201789,335.373028 195.26,330.22 L195.26,330.22 C196.126032,328.036521 197.456818,326.06764 199.16,324.45" id="Path" stroke="#FFFFFF" stroke-width="1.32" stroke-linecap="round" stroke-linejoin="round"></path>
            <path d="M226.11,332.28 C226.95388,335.599178 226.722791,339.100522 225.45,342.28 L225.45,342.28 C223.981141,345.985886 221.196688,349.019587 217.63,350.8" id="Path" stroke="#FFFFFF" stroke-width="1.32" stroke-linecap="round" stroke-linejoin="round"></path>
            <line x1="220.05" y1="357.02" x2="223.02" y2="363.92" id="Path" stroke="#1D252F" stroke-width="1.98" stroke-linecap="round"></line>
            <rect id="Rectangle" fill="#1D252F" fill-rule="nonzero" transform="translate(220.622468, 358.404582) rotate(21.690000) translate(-220.622468, -358.404582) " x="217.797468" y="355.579582" width="5.65" height="5.65"></rect>
            <line x1="188.58" y1="345.88" x2="181.69" y2="348.85" id="Path" stroke="#1D252F" stroke-width="1.98" stroke-linecap="round"></line>
            <rect id="Rectangle" fill="#1D252F" fill-rule="nonzero" transform="translate(187.206437, 346.458225) rotate(111.690000) translate(-187.206437, -346.458225) " x="184.381437" y="343.633225" width="5.65" height="5.65"></rect>
            <line x1="200.09" y1="315.28" x2="197.12" y2="308.38" id="Path" stroke="#1D252F" stroke-width="1.98" stroke-linecap="round"></line>
            <rect id="Rectangle" fill="#1D252F" fill-rule="nonzero" transform="translate(199.514089, 313.898520) rotate(-158.310000) translate(-199.514089, -313.898520) " x="196.689089" y="311.07352" width="5.65" height="5.65"></rect>
            <line x1="231.3" y1="325.95" x2="238.19" y2="322.98" id="Path" stroke="#1D252F" stroke-width="1.98" stroke-linecap="round"></line>
            <rect id="Rectangle" fill="#1D252F" fill-rule="nonzero" transform="translate(232.679684, 325.377732) rotate(-68.310000) translate(-232.679684, -325.377732) " x="229.854684" y="322.552732" width="5.65" height="5.65"></rect>
            <rect id="Rectangle" fill="#1D252F" fill-rule="nonzero" x="377.16" y="140.75" width="46.36" height="46.36" rx="17.52"></rect>
            <rect id="Rectangle" fill="#00A2FF" fill-rule="nonzero" x="389.15" y="152.74" width="22.38" height="22.38" rx="11.19"></rect>
            <path d="M390.06,151.35 C392.958532,148.973576 396.591818,147.676478 400.34,147.679993 L400.34,147.679993 C402.169118,147.681118 403.984822,147.992188 405.71,148.6" id="Path" stroke="#FFFFFF" stroke-width="1.32" stroke-linecap="round" stroke-linejoin="round"></path>
            <path d="M391.589997,177.62 C386.916993,174.636122 384.089176,169.474413 384.089997,163.93 L384.089997,163.93 C384.088675,161.58221 384.597048,159.262117 385.58,157.13" id="Path" stroke="#FFFFFF" stroke-width="1.32" stroke-linecap="round" stroke-linejoin="round"></path>
            <path d="M413.52,154.44 C415.516065,157.201074 416.587197,160.522985 416.580036,163.93 L416.580036,163.93 C416.58296,167.917419 415.11614,171.76604 412.46,174.74" id="Path" stroke="#FFFFFF" stroke-width="1.32" stroke-linecap="round" stroke-linejoin="round"></path>
            <line x1="417.03" y1="179.66" x2="422.34" y2="184.97" id="Path" stroke="#1D252F" stroke-width="1.98" stroke-linecap="round"></line>
            <rect id="Rectangle" fill="#1D252F" fill-rule="nonzero" x="415.25" y="177.91" width="5.65" height="5.65"></rect>
            <line x1="383.68" y1="180.94" x2="378.37" y2="186.26" id="Path" stroke="#1D252F" stroke-width="1.98" stroke-linecap="round"></line>
            <rect id="Rectangle" fill="#1D252F" fill-rule="nonzero" transform="translate(382.595000, 181.985000) rotate(90.000000) translate(-382.595000, -181.985000) " x="379.77" y="179.16" width="5.65" height="5.65"></rect>
            <line x1="383.06" y1="148.25" x2="377.75" y2="142.94" id="Path" stroke="#1D252F" stroke-width="1.98" stroke-linecap="round"></line>
            <rect id="Rectangle" fill="#1D252F" fill-rule="nonzero" transform="translate(382.015000, 147.185000) rotate(180.000000) translate(-382.015000, -147.185000) " x="379.19" y="144.36" width="5.65" height="5.65"></rect>
            <line x1="416" y1="146.64" x2="421.31" y2="141.33" id="Path" stroke="#1D252F" stroke-width="1.98" stroke-linecap="round"></line>
            <rect id="Rectangle" fill="#1D252F" fill-rule="nonzero" transform="translate(417.075000, 145.595000) rotate(-90.000000) translate(-417.075000, -145.595000) " x="414.25" y="142.77" width="5.65" height="5.65"></rect>
            <rect id="Rectangle" fill="#1D252F" fill-rule="nonzero" transform="translate(345.369146, 288.432077) rotate(45.000000) translate(-345.369146, -288.432077) " x="322.189146" y="265.252077" width="46.36" height="46.36" rx="17.52"></rect>
            <rect id="Rectangle" fill="#FF0000" fill-rule="nonzero" transform="translate(345.369146, 288.432077) rotate(45.000000) translate(-345.369146, -288.432077) " x="334.179146" y="277.242077" width="22.38" height="22.38" rx="11.19"></rect>
            <path d="M347,272.27 C350.724443,272.641276 354.205196,274.291541 356.85,276.94 L356.85,276.94 C358.145803,278.235314 359.214091,279.739705 360.01,281.39" id="Path" stroke="#FFFFFF" stroke-width="1.32" stroke-linecap="round" stroke-linejoin="round"></path>
            <path d="M329.5,291.93 C328.298468,286.509966 329.950648,280.851816 333.88,276.93 L333.88,276.93 C335.537901,275.269367 337.537569,273.989715 339.74,273.18" id="Path" stroke="#FFFFFF" stroke-width="1.32" stroke-linecap="round" stroke-linejoin="round"></path>
            <path d="M361.4,291 C360.856018,294.365197 359.263708,297.472827 356.85,299.88 C354.035358,302.70141 350.278968,304.385554 346.3,304.61" id="Path" stroke="#FFFFFF" stroke-width="1.32" stroke-linecap="round" stroke-linejoin="round"></path>
            <line x1="346.05" y1="311.36" x2="346.05" y2="318.87" id="Path" stroke="#1D252F" stroke-width="1.98" stroke-linecap="round"></line>
            <rect id="Rectangle" fill="#1D252F" fill-rule="nonzero" transform="translate(346.021218, 312.856315) rotate(45.000000) translate(-346.021218, -312.856315) " x="343.196218" y="310.031315" width="5.65" height="5.65"></rect>
            <line x1="321.56" y1="288.68" x2="314.04" y2="288.68" id="Path" stroke="#1D252F" stroke-width="1.98" stroke-linecap="round"></line>
            <rect id="Rectangle" fill="#1D252F" fill-rule="nonzero" transform="translate(320.062161, 288.656710) rotate(135.000000) translate(-320.062161, -288.656710) " x="317.237161" y="285.83171" width="5.65" height="5.65"></rect>
            <line x1="344.23" y1="265.13" x2="344.23" y2="257.62" id="Path" stroke="#1D252F" stroke-width="1.98" stroke-linecap="round"></line>
            <rect id="Rectangle" fill="#1D252F" fill-rule="nonzero" transform="translate(344.259494, 263.631989) rotate(-135.000000) translate(-344.259494, -263.631989) " x="341.434494" y="260.806989" width="5.65" height="5.65"></rect>
            <line x1="368.67" y1="287.28" x2="376.18" y2="287.28" id="Path" stroke="#1D252F" stroke-width="1.98" stroke-linecap="round"></line>
            <rect id="Rectangle" fill="#1D252F" fill-rule="nonzero" transform="translate(370.159294, 287.302646) rotate(-45.000000) translate(-370.159294, -287.302646) " x="367.334294" y="284.477646" width="5.65" height="5.65"></rect>
            <path d="M394.54,349.63 C394.697697,349.34992 395.027896,349.215824 395.33622,349.306648 C395.644544,349.397472 395.849319,349.689158 395.83,350.01 C395.49,353.92 396,359.25 400.21,363.01 C404.92,367.25 413.36,362.23 418.91,358.01 C419.186142,357.733858 419.633858,357.733858 419.91,358.01 C420.186142,358.286142 420.186142,358.733858 419.91,359.01 C415.31,365.07 408.91,374.48 409.91,379.01 C411.39,386.01 431.45,396.47 429.97,396.47 C428.49,396.47 410.65,392.38 404.33,395.72 C399.67,398.19 397.44,405.72 396.59,409.49 C396.529282,409.780179 396.287566,409.997578 395.992596,410.027303 C395.697627,410.057029 395.417395,409.892229 395.3,409.62 C393.65,405.94 389.69,398.33 383.74,394.84 C377.79,391.35 369.17,392.92 365,394 C364.705566,394.066498 364.402085,393.933896 364.250848,393.672667 C364.09961,393.411438 364.135726,393.082228 364.34,392.86 C368.18,388.76 377.03,378.78 377.03,373.86 C377.03,369.16 370.33,362.21 366.89,358.95 C366.659325,358.73914 366.602078,358.398195 366.751234,358.123558 C366.90039,357.848921 367.217541,357.711313 367.52,357.79 C372.12,358.87 381.57,360.79 385.71,359.79 C389.06,358.79 392.4,353.62 394.54,349.63 Z" id="Path" fill="#FDFF00" fill-rule="nonzero"></path>
            <path d="M369.55,367.39 C369.55,367.39 374.28,370.52 373.93,374.2 C373.58,377.88 365.29,384.65 365.29,384.65" id="Path" stroke="#FFFFFF" stroke-linecap="round" stroke-linejoin="round"></path>
            <path d="M417.05,370.74 C417.05,370.74 412.32,373.87 412.68,377.54 C413.04,381.21 421.32,388 421.32,388" id="Path" stroke="#FFFFFF" stroke-linecap="round" stroke-linejoin="round"></path>
            <path d="M413.35,400 C413.35,400 408.72,396.73 405.42,398.39 C404.11,399.05 402.8,401.05 401.7,403.22" id="Path" stroke="#FFFFFF" stroke-linecap="round" stroke-linejoin="round"></path>
            <path d="M378.11,356.45 C378.11,356.45 383.31,358.72 386.2,356.45 C387.34,355.54 388.2,353.32 388.86,350.97" id="Path" stroke="#FFFFFF" stroke-linecap="round" stroke-linejoin="round"></path>
            <circle id="Oval" fill="#1D252F" fill-rule="nonzero" cx="226.58" cy="370.26" r="1.64"></circle>
            <circle id="Oval" fill="#1D252F" fill-rule="nonzero" opacity="0.55" cx="172.66" cy="351.93" r="1.64"></circle>
            <circle id="Oval" fill="#1D252F" fill-rule="nonzero" cx="247.04" cy="320" r="1.64"></circle>
            <circle id="Oval" fill="#1D252F" fill-rule="nonzero" opacity="0.55" cx="257.63" cy="316.11" r="1.64"></circle>
            <circle id="Oval" fill="#1D252F" fill-rule="nonzero" cx="346.15" cy="325.06" r="1.64"></circle>
            <circle id="Oval" fill="#1D252F" fill-rule="nonzero" cx="385.62" cy="287.02" r="1.64"></circle>
            <circle id="Oval" fill="#1D252F" fill-rule="nonzero" opacity="0.55" cx="346.15" cy="337.14" r="1.64"></circle>
            <circle id="Oval" fill="#1D252F" fill-rule="nonzero" opacity="0.22" cx="346.15" cy="349.23" r="1.64"></circle>
            <circle id="Oval" fill="#1D252F" fill-rule="nonzero" opacity="0.55" cx="235.21" cy="385.51" r="1.64"></circle>
            <circle id="Oval" fill="#1D252F" fill-rule="nonzero" cx="226.34" cy="262.53" r="1.64"></circle>
            <circle id="Oval" fill="#1D252F" fill-rule="nonzero" cx="344.22" cy="248.51" r="1.64"></circle>
            <circle id="Oval" fill="#1D252F" fill-rule="nonzero" opacity="0.55" cx="344.22" cy="231.53" r="1.64"></circle>
            <circle id="Oval" fill="#1D252F" fill-rule="nonzero" opacity="0.55" cx="213.24" cy="273.78" r="1.64"></circle>
            <path d="M461,167.11 C469.54,172.77 473.6,182.23 474.31,186.58 C475.02,190.93 475.72,194.27 478.48,198.26 C485.11,205.32 502.36,224.8 512.48,236.52 C513.55,233.19 514.48,228.63 514.48,228.63 C514.48,228.63 538.18,240.43 538.36,243.79 C538.5,246.58 533.64,254.37 531.44,257.7 L531.44,257.7 C531.13,258.16 530.8,258.62 530.44,259.08 L530.44,259.08 C526.519538,264.768019 520.567952,268.736936 513.81,270.17 C509.21,271.83 486,249.34 464.2,202 C455,190.3 450.7,191 446,174.11 C441.3,157.22 452.49,161.44 461,167.11 Z" id="Path" fill="#FFFFFF" fill-rule="nonzero"></path>
            <polygon id="Path-36" fill="#FFFFFF" fill-rule="nonzero" points="610.34 184.32 598.42 180.72 595.98 156.58 600.4 151.45 602.43 143.97 608.16 143.39 611.07 138.02 609.54 132.27 607.75 130.55 610.19 120.57 572.1 117.57 569.87 118.8 564.77 128.67 562.02 139.86 564.36 149.43 568.7 155.32 574.95 159.41 577.29 159.17 579.23 181.49 562.73 180.73 577.86 198.01 610.57 198.92"></polygon>
            <path d="M656.89,624.23 L657.39,637.12 C657.5,640.02 662.39,668.95 659.85,669.68 C657.31,670.41 584.1,676.81 592.96,669.68 C601.82,662.55 629.96,641.95 629.69,636.11 C631.35,633.43 629.86,622.44 629.86,622.44 L656.89,624.23 Z" id="Path-32" fill="#FFFFFF" fill-rule="nonzero"></path>
            <path d="M605.65,182.58 C602.71,181.78 600.3,181.16 598.42,180.72 C598.06,173.473333 597.246667,165.426667 595.98,156.58 C597.73421,155.13366 599.228963,153.3988 600.4,151.45 C601.398937,149.071473 602.071698,146.568805 602.4,144.01 C608.58,143.87 611.42,141.306667 610.92,136.32 C610.42,131.333333 607.396667,129.396667 601.85,130.51" id="Path-20" stroke="#1D252E" stroke-width="4" stroke-linecap="round" stroke-linejoin="round"></path>
            <path d="M567.34,124.33 C563.046667,131.483333 561.38,137.576667 562.34,142.61 C564.906667,152.736667 570.133333,158.443333 578.02,159.73 L579.21,181.49 L570.9,181.03" id="Path-21" stroke="#1D252E" stroke-width="4" stroke-linecap="round" stroke-linejoin="round"></path>
            <path d="M558.8,613.41 L558.39,648.81 L558.8,667 L493.45,665.95 L491.51,664 L492.23,662.5 C509.42,649.96 525.23,637.67 533.97,626.6 L535.21,611.6 L558.8,613.41 Z" id="Path-33" fill="#FFFFFF" fill-rule="nonzero"></path>
            <path d="M641.47,340.78 L651.37,482.78 L665.08,622.71 C649.9,625.41 638.543333,626.743333 631.01,626.71061 C623.476667,626.676667 618.053333,625.343333 614.74,622.71 L600.74,489.58 L591.14,395.75 C588.176886,395.830271 585.212979,395.62263 582.29,395.13 C579.297451,394.460425 576.372051,393.519879 573.55,392.32 L567.63,486.62 L563.63,612.62 C551.77,614.266667 542.893333,615.06 537,615 C530.209787,614.765532 523.473458,613.704375 516.94,611.84 L519.88,479.61 L536,347 L641.47,340.78 Z" id="Path-31" fill="#1D252E" fill-rule="nonzero"></path>
            <path d="M608.49,127.48 C606.04235,126.387186 603.309969,126.103439 600.69,126.67" id="Path-22" stroke="#1D252E" stroke-width="4" stroke-linecap="round" stroke-linejoin="round"></path>
            <path d="M609.73,124.78 C606.34739,123.494343 602.73365,122.928951 599.12,123.12 C598.72,121.82 598.24,120.38 597.67,118.78 C591.943333,126.113333 582.653333,126.393333 569.8,119.62 C550.52,109.48 570.51,76.31 589.88,88.33 C596.86,92.79 600.86,96.58 601.88,99.7 C607.18,99.9333333 610.456667,101.52 611.71,104.46 C614.156667,108.393333 613.496667,115.166667 609.73,124.78 Z" id="Path-23" fill="#1D252E" fill-rule="nonzero"></path>
            <path d="M611,183.32 C603.666667,192.5 595.333333,196.166667 586,194.32 C572,191.51 567.69,187.62 565.29,180.57 C556.58,178 540.09,185.5 534.14,191.3 C515.14,210.78 513.51,230.21 513.51,230.21 L535.42,243.97 C532.04,260.88 533.22,247.6 531.87,283.69 C531.91,299.61 531.43,320.05 530.43,345.01 C556.976667,352.136667 577.02,355.366667 590.56,354.7 C604.1,354.033333 622.553333,348.88 645.92,339.24 L633.8,254.58 C635.54,253.94 645.35,197.92 641.47,195.13 C637.59,192.34 630.69,187.48 611,183.32 Z" id="Path-24" fill="#9DD5C0" fill-rule="nonzero"></path>
            <line x1="643.02" y1="326.79" x2="634.66" y2="262.96" id="Path-29" stroke="#1D252E" stroke-width="4" stroke-linecap="round" stroke-linejoin="round"></line>
            <path d="M656.89,624.23 L657.39,637.12 C657.5,640.02 662.39,668.95 659.85,669.68 C657.31,670.41 584.1,676.81 592.96,669.68 C601.82,662.55 629.96,641.95 629.69,636.11" id="Path-32-2" stroke="#1D252E" stroke-width="4" stroke-linecap="round" stroke-linejoin="round"></path>
            <path d="M558.8,613.41 C558.013333,632.076667 557.876667,643.876667 558.39,648.81 C558.942513,654.856821 559.079501,660.934426 558.8,667 L493.45,665.95 C492.395534,665.918983 491.546466,665.074291 491.51,664.02 C491.488915,663.432061 491.758082,662.871298 492.23,662.52 C520.123333,641.506667 534.046667,629.523333 534,626.57" id="Path-33-2" stroke="#1D252E" stroke-width="4" stroke-linecap="round" stroke-linejoin="round"></path>
            <path d="M518.59,268.73 C517.05027,269.360759 515.457273,269.852714 513.83,270.2 C509.21,271.83 486,249.34 464.2,202 C455,190.3 450.7,191 446,174.11 C441.3,157.22 452.53,161.44 461.07,167.11 C469.61,172.78 473.67,182.23 474.38,186.58 C475.09,190.93 475.79,194.27 478.55,198.26 C482.43,202.4 489.96,210.79 497.55,219.39" id="Path" stroke="#1D252E" stroke-width="4" stroke-linecap="round" stroke-linejoin="round"></path>
            <line x1="513.4" y1="232.13" x2="512.51" y2="236.57" id="Path" stroke="#1D252E" stroke-width="4" stroke-linecap="round" stroke-linejoin="round"></line>
            <path d="M470.09,181.85 C465.03,176.67 461.956667,175.636667 460.87,178.75 C459.783333,181.863333 463.283333,188.63 471.37,199.05" id="Path-27" fill="#FFFFFF" fill-rule="nonzero"></path>
            <path d="M470.09,181.85 C465.03,176.67 461.956667,175.636667 460.87,178.75 C459.783333,181.863333 463.283333,188.63 471.37,199.05" id="Path-27-2" stroke="#1D252E" stroke-width="4" stroke-linecap="round" stroke-linejoin="round"></path>
            <path d="M530.87,259.79 L520.41,259.97 C519.149571,260.058472 517.93886,259.462665 517.24,258.41 L499.37,228.18 C498.01,225.88 500.05,223.6 503.19,223.52 L515.12,223.7 C516.384725,223.603497 517.60224,224.200768 518.3,225.26 L535,254.33 C536.3,256.63 534,259.71 530.87,259.79 Z" id="Path" fill="#9DD5C0" fill-rule="nonzero"></path>
            <path d="M533.9,251.54 L516.76,223.94 L502.65,223.8 C498.56,223.58 499.37,228.18 499.37,228.18 L513.99,228.13 L527.55,249.41" id="Path" stroke="#1D252E" stroke-width="2" stroke-linecap="round" stroke-linejoin="round"></path>
            <ellipse id="Oval" stroke="#1D252E" transform="translate(504.308951, 231.600717) rotate(-20.980000) translate(-504.308951, -231.600717) " cx="504.308951" cy="231.600717" rx="1" ry="1.04"></ellipse>
            <line x1="516.37" y1="227.81" x2="518.69" y2="231.37" id="Path" stroke="#1D252E" stroke-linecap="round" stroke-linejoin="round"></line>
            <path d="M599.13,247.32 L592.79,255.1 L535.79,247.54 C537.36,243.9 510.12,227.54 503.79,245.07 C497.46,262.6 531.88,264.38 535.71,265.47 C537.92,266.1 599.36,281.42 614.03,273.58 C614.03,273.58 635.03,260.45 631.11,252.18 C627.19,243.91 613.69,243.69 599.13,247.32 Z" id="Path-30" fill="#FFFFFF" fill-rule="nonzero"></path>
            <path d="M622.57,265.12 L614.09,273.58 C599.42,281.42 537.98,266.1 535.77,265.47 C531.94,264.38 497.56,262.56 503.85,245.07 C510.14,227.58 537.39,243.9 535.85,247.54 L592.85,255.1" id="Path-30-2" stroke="#1D252E" stroke-width="4" stroke-linecap="round" stroke-linejoin="round"></path>
            <path d="M626,192 C615.4,199.35 596.16,237.37 594.8,248.4 C610.28,265.13 628.18,261.09 634.46,257.13 C640.74,253.17 648.89,227.78 648.04,206.39 C647.54,198.24 633.65,185.44 626,192 Z" id="Path-24-2" fill="#9DD5C0" fill-rule="nonzero"></path>
            <path d="M610.11,218.64 C604.64,222.43 600.56,237.38 600.9,240.64" id="Path" stroke="#1D252E" stroke-width="4" stroke-linecap="round" stroke-linejoin="round"></path>
        </g>
    </g>
</svg>