<svg xmlns="http://www.w3.org/2000/svg" xmlns:xlink="http://www.w3.org/1999/xlink" viewBox="0 0 32 32">
  <defs>
    <clipPath id="clip-path">
      <rect id="Rectangle_2999" data-name="Rectangle 2999" width="32" height="32" transform="translate(1242 6715)" fill="#fff" stroke="#707070" stroke-width="1"/>
    </clipPath>
  </defs>
  <g id="Mask_Group_382" data-name="Mask Group 382" transform="translate(-1242 -6715)" clip-path="url(#clip-path)">
    <g id="instagram" transform="translate(1242 6715)">
      <path id="Path_1565" data-name="Path 1565" d="M19.063,16A3.063,3.063,0,1,1,16,12.938,3.062,3.062,0,0,1,19.063,16Zm0,0" fill="#fff"/>
      <path id="Path_1566" data-name="Path 1566" d="M23.162,10.582a3.042,3.042,0,0,0-1.744-1.744,5.083,5.083,0,0,0-1.706-.316c-.969-.044-1.26-.054-3.713-.054s-2.744.009-3.713.053a5.086,5.086,0,0,0-1.706.316,3.044,3.044,0,0,0-1.744,1.744,5.085,5.085,0,0,0-.316,1.706c-.044.969-.054,1.259-.054,3.713s.01,2.744.054,3.713a5.083,5.083,0,0,0,.316,1.706,3.042,3.042,0,0,0,1.744,1.744,5.077,5.077,0,0,0,1.706.316c.969.044,1.259.053,3.712.053s2.744-.009,3.713-.053a5.077,5.077,0,0,0,1.706-.316,3.042,3.042,0,0,0,1.744-1.744,5.088,5.088,0,0,0,.316-1.706c.044-.969.053-1.26.053-3.713s-.009-2.744-.053-3.713A5.077,5.077,0,0,0,23.162,10.582ZM16,20.718A4.718,4.718,0,1,1,20.718,16,4.718,4.718,0,0,1,16,20.718Zm4.9-8.52a1.1,1.1,0,1,1,1.1-1.1A1.1,1.1,0,0,1,20.9,12.2Zm0,0" fill="#fff"/>
      <path id="Path_1567" data-name="Path 1567" d="M16,0A16,16,0,1,0,32,16,16,16,0,0,0,16,0Zm9.132,19.788a6.741,6.741,0,0,1-.427,2.23,4.7,4.7,0,0,1-2.687,2.687,6.745,6.745,0,0,1-2.23.427c-.98.045-1.293.055-3.788.055s-2.808-.011-3.788-.055a6.745,6.745,0,0,1-2.23-.427A4.7,4.7,0,0,1,7.3,22.018a6.739,6.739,0,0,1-.427-2.23c-.045-.98-.056-1.293-.056-3.788s.01-2.808.055-3.788a6.741,6.741,0,0,1,.427-2.23A4.7,4.7,0,0,1,9.982,7.295a6.747,6.747,0,0,1,2.23-.427c.98-.045,1.293-.055,3.788-.055s2.808.011,3.788.056a6.748,6.748,0,0,1,2.23.427,4.7,4.7,0,0,1,2.687,2.687,6.74,6.74,0,0,1,.427,2.23c.045.98.055,1.293.055,3.788S25.177,18.808,25.132,19.788Zm0,0" fill="#fff"/>
    </g>
  </g>
</svg>
