<?xml version="1.0" encoding="UTF-8"?>
<svg viewBox="0 0 820 312" version="1.1" xmlns="http://www.w3.org/2000/svg" xmlns:xlink="http://www.w3.org/1999/xlink">
    <title>spanilk wide</title>
    <defs>
        <linearGradient x1="49.8946763%" y1="100.012655%" x2="49.8946763%" y2="-0.0137356703%" id="linearGradient-1">
            <stop stop-color="#6DC3CC" offset="30.39%"></stop>
            <stop stop-color="#5FBAC5" offset="38.44%"></stop>
            <stop stop-color="#1B8EA5" offset="80.38%"></stop>
            <stop stop-color="#007D98" offset="100%"></stop>
        </linearGradient>
        <linearGradient x1="0.0035678392%" y1="49.9745098%" x2="99.9992965%" y2="49.9745098%" id="linearGradient-2">
            <stop stop-color="#6DC3CC" offset="26.03%"></stop>
            <stop stop-color="#69C0CA" offset="39.5%"></stop>
            <stop stop-color="#5CB8C4" offset="53.72%"></stop>
            <stop stop-color="#47ABBA" offset="68.29%"></stop>
            <stop stop-color="#2998AC" offset="83.09%"></stop>
            <stop stop-color="#047F9A" offset="97.94%"></stop>
            <stop stop-color="#007D98" offset="99.27%"></stop>
        </linearGradient>
        <linearGradient x1="81.9888537%" y1="31.5613223%" x2="-4.63248945%" y2="81.5106544%" id="linearGradient-3">
            <stop stop-color="#6DC3CC" offset="42.22%"></stop>
            <stop stop-color="#5CB8C4" offset="50.34%"></stop>
            <stop stop-color="#1A8EA4" offset="84.12%"></stop>
            <stop stop-color="#007D98" offset="100%"></stop>
        </linearGradient>
    </defs>
    <g id="Page-1" stroke="none" stroke-width="1" fill="none" fill-rule="evenodd">
        <g id="spanilk-wide" fill-rule="nonzero">
            <g id="spanilk" transform="translate(46.000000, 84.000000)">
                <g id="Group-4">
                    <path d="M84.0517241,84 L84.0517241,143.944538 C84.0517241,143.944538 101.737658,145.888265 110.948276,126.761992 L110.948276,84 L84.0517241,84 L84.0517241,84 Z" id="Path" fill="url(#linearGradient-1)"></path>
                    <polyline id="Path" fill="url(#linearGradient-2)" points="30.5231453 69.12 16.3300493 69.12 16.3300493 43.2 94.137931 43.2 94.137931 69.12 30.5231453 69.12"></polyline>
                    <path d="M139.525862,0 C108.901953,0 84.0517241,24.8349367 84.0517241,55.44 C84.0517241,86.0450633 108.901953,110.88 139.525862,110.88 C170.149771,110.88 195,86.0450633 195,55.44 C195,24.8349367 170.149771,0 139.525862,0 Z M139.525862,83.8227848 C123.8433,83.8227848 111.164612,71.1129114 111.164612,55.4789873 C111.164612,39.8060759 123.882311,27.1351899 139.525862,27.1351899 C155.169413,27.1351899 167.887113,39.8450633 167.887113,55.4789873 C167.887113,71.1129114 155.169413,83.8227848 139.525862,83.8227848 Z" id="Shape" fill="url(#linearGradient-3)"></path>
                    <path d="M111.18213,55.455626 C111.18213,39.7782972 123.908048,27.1038397 139.561706,27.1038397 C148.344931,27.1038397 156.230316,31.0816694 161.422178,37.3604007 L186.834975,26.3628715 C177.0368,10.5685476 159.548423,0 139.561706,0 C108.91801,0 84.0517241,24.8419366 84.0517241,55.455626 C84.0517241,60.525409 84.7153456,65.4002003 86.0035519,70.08 C86.0035519,70.08 111.18213,56.7035726 111.18213,55.455626 Z" id="Path" fill="#6DC3CC"></path>
                    <g id="Group" fill="#6DC3CC">
                        <path d="M27.132818,55.44 C27.132818,39.7670886 39.8415804,27.0962025 55.4741379,27.0962025 C60.736969,27.0962025 65.6099607,28.5387342 69.8202256,30.9949367 L90.1308552,12.203038 C80.6187753,4.56151899 68.5727397,0 55.435154,0 C24.8327659,0 0,24.8349367 0,55.44 C0,60.1964557 0.584759008,64.8359494 1.71529309,69.241519 L30.641372,69.241519 C28.4192878,65.1478481 27.132818,60.4693671 27.132818,55.44 Z" id="Path"></path>
                        <path d="M83.8154579,55.44 C83.8154579,71.1129114 71.1066954,83.7837975 55.4741379,83.7837975 C49.0417888,83.7837975 43.077247,81.6394937 38.321207,78.0136709 L18.5563525,96.7665823 C28.3803039,105.538734 41.3229699,110.88 55.5131219,110.88 C86.11551,110.88 110.948276,86.0450633 110.948276,55.44 L83.8154579,55.44 Z" id="Path"></path>
                    </g>
                </g>
                <path d="M238.855799,107.773571 C233.048589,106.161203 228.46395,104.145743 225,101.525644 L231.112853,88.5259266 C234.474922,90.8437057 238.448276,92.7583929 243.032915,94.169215 C247.617555,95.5800371 252.304075,96.2854481 256.888715,96.2854481 C261.982759,96.2854481 265.854232,95.5800371 268.299373,94.068442 C270.744514,92.6576199 271.967085,90.6421597 271.967085,88.2236076 C271.967085,86.4096935 271.253918,84.9988714 269.827586,83.7895953 C268.401254,82.5803192 266.465517,81.6733622 264.224138,80.9679511 C261.982759,80.2625401 258.926332,79.456356 255.054859,78.650172 C249.145768,77.3401229 244.255486,75.9293008 240.384013,74.6192517 C236.61442,73.3092026 233.354232,71.0921965 230.603448,68.1697793 C227.852665,65.1465891 226.528213,61.2164418 226.528213,56.2785645 C226.528213,51.9453252 227.750784,48.015178 230.195925,44.4881227 C232.641066,40.9610675 236.308777,38.2401963 241.30094,36.1239632 C246.293103,34.1085031 252.304075,33 259.435737,33 C264.4279,33 269.318182,33.604638 274.106583,34.7131411 C278.894984,35.8216442 283.0721,37.4340123 286.637931,39.6510184 L281.034483,52.7515093 C273.80094,48.821362 266.567398,46.9066749 259.333856,46.9066749 C254.239812,46.9066749 250.5721,47.712859 248.126959,49.2244541 C245.681818,50.7360491 244.459248,52.8522823 244.459248,55.3716075 C244.459248,57.8909326 245.88558,59.8056197 248.636364,61.0148958 C251.387147,62.2241719 255.666144,63.433448 261.473354,64.6427241 C267.382445,65.9527731 272.272727,67.3635952 276.144201,68.6736443 C279.913793,69.9836934 283.173981,72.0999265 285.924765,75.0223437 C288.675549,77.9447609 290,81.8749082 290,86.8127855 C290,91.0452518 288.777429,94.975399 286.230408,98.5024542 C283.785266,102.029509 280.015674,104.750381 275.023511,106.866614 C270.031348,108.882074 263.918495,109.990577 256.786834,109.990577 C250.5721,110.09135 244.663009,109.385939 238.855799,107.773571 Z" id="Path" fill="#fff"></path>
                <path d="M354.994003,38.3044655 C360.091454,40.5074425 364.067466,43.6116373 366.82009,47.6170501 C369.572714,51.6224628 371,56.4289581 371,61.8362652 C371,67.2435724 369.572714,71.9499323 366.82009,76.0554804 C364.067466,80.0608931 360.091454,83.165088 354.994003,85.368065 C349.896552,87.4709066 343.881559,88.5723951 336.949025,88.5723951 L321.146927,88.5723951 L321.146927,109 L303,109 L303,35 L336.847076,35 C343.881559,35 349.896552,36.1014885 354.994003,38.3044655 Z M347.434558,70.9067508 C350.284333,68.6646635 351.70922,65.4034455 351.70922,61.3269231 C351.70922,57.1484876 350.284333,53.8872696 347.434558,51.6451823 C344.584784,49.403095 340.513678,48.2820513 335.017684,48.2820513 L320.361702,48.2820513 L320.361702,74.3717949 L335.119462,74.3717949 C340.513678,74.2698818 344.686562,73.1488381 347.434558,70.9067508 Z" id="Shape" fill="#fff"></path>
                <path d="M430.009302,93.1786198 L393.581395,93.1786198 L386.623256,109 L368,109 L402.995349,35 L420.902326,35 L456,109 L436.967442,109 L430.009302,93.1786198 Z M425.054945,79.5897436 L412.483516,50.6538462 L399.912088,79.5897436 L425.054945,79.5897436 Z" id="Shape" fill="#fff"></path>
                <polygon id="Path" fill="#fff" points="536 34 536 109 521.068182 109 481.897727 63.5331529 481.897727 109 464 109 464 34 479.034091 34 518.102273 79.4668471 518.102273 34"></polygon>
                <path d="M554.62766,48.179322 C552.808511,46.5471698 552,44.6089891 552,42.2627704 C552,39.9165516 552.909574,37.8763614 554.62766,36.3462187 C556.446809,34.7140666 558.670213,34 561.5,34 C564.329787,34 566.654255,34.8160761 568.37234,36.3462187 C570.191489,37.8763614 571,39.8145421 571,42.0587513 C571,44.5069796 570.090426,46.6491793 568.37234,48.2813315 C566.553191,49.9134837 564.329787,50.7295597 561.5,50.7295597 C558.771277,50.6275502 556.446809,49.8114742 554.62766,48.179322 Z M553.425,58.8553459 L569.1,58.8553459 L569.1,110 L553.425,110 L553.425,58.8553459 Z" id="Shape" fill="#fff"></path>
                <polygon id="Path" fill="#fff" points="588 34 606.021314 34 606.021314 94.8739837 645 94.8739837 645 109 588.101243 109 588.101243 34"></polygon>
                <polygon id="Path" fill="#fff" points="683.267394 79.5683356 672.869031 90.0216509 672.869031 109 655 109 655 34 672.869031 34 672.869031 69.0135318 707.193724 34 727.081855 34 694.978172 67.3897158 729 108.898512 708.102319 108.898512"></polygon>
            </g>
        </g>
    </g>
</svg>