<svg id="Layer_1" data-name="Layer 1" xmlns="http://www.w3.org/2000/svg" viewBox="0 0 1200 1200"><defs><style>.cls-1{fill:#e9e8e8;}.cls-2,.cls-8,.cls-9{fill:#1d252f;}.cls-3{fill:#9ed4c0;}.cls-4{fill:#fff;}.cls-10,.cls-13,.cls-14,.cls-15,.cls-16,.cls-5,.cls-6,.cls-7{fill:none;}.cls-5,.cls-7{stroke:#fff;}.cls-10,.cls-13,.cls-15,.cls-5,.cls-6,.cls-7{stroke-linecap:round;}.cls-10,.cls-13,.cls-15,.cls-5,.cls-7{stroke-linejoin:round;}.cls-5{stroke-width:1.32px;}.cls-6{stroke:#1d252f;stroke-width:1.98px;}.cls-14,.cls-6{stroke-miterlimit:10;}.cls-8{opacity:0.55;}.cls-9{opacity:0.22;}.cls-10,.cls-13,.cls-14,.cls-15{stroke:#1d252e;}.cls-10{stroke-width:4px;}.cls-11{fill:#1d252e;}.cls-12{fill:#9dd5c0;}.cls-13{stroke-width:2px;}</style></defs><path id="Path-141" class="cls-1" d="M758.14,467.29C647.45,392.45,393.16,193.21,260,309.14S199.75,981.74,592,921.8c147.36-22.52,370-34.95,401.22-104C1045.12,702.94,827.25,514,758.14,467.29Z"/><path class="cls-2" d="M684.58,416.08V313.23a53.5,53.5,0,0,0-53.44-53.44H392.39A53.51,53.51,0,0,0,339,313.23V355h-2v36h2v8.39h-2v56.7h2v2.13h-2v56.71h2V886.77a53.5,53.5,0,0,0,53.44,53.44H631.14a53.5,53.5,0,0,0,53.44-53.44v-388h2V416.08Z"/><path class="cls-3" d="M662.71,309.47V894.29c0,13.46-10.84,24.5-24.43,25.18q-.64,0-1.32,0H386.57c-.45,0-.89,0-1.33,0-13.59-.68-24.43-11.72-24.43-25.18V309.47c0-13.91,11.56-25.21,25.76-25.21H429.9v5.13a17.09,17.09,0,0,0,17.28,16.89H576.35a17.09,17.09,0,0,0,17.27-16.89v-5.13H637C651.16,284.26,662.71,295.56,662.71,309.47Z"/><circle class="cls-4" cx="554.08" cy="288.29" r="4.03"/><rect class="cls-4" x="469.77" y="284.26" width="72.47" height="8.06" rx="4.03"/><rect class="cls-2" x="510.41" y="782.63" width="59.76" height="79.57"/><path class="cls-2" d="M567.07,846.37H513.51v-45c0-14.79,12-50.46,26.78-50.46h0c14.79,0,26.78,35.67,26.78,50.46Z"/><path class="cls-4" d="M525.07,780.93c0-6.15,6.81-22.06,15.22-22.06h0c8.41,0,15.22,15.59,15.22,22.06Z"/><rect class="cls-2" x="576.97" y="800.62" width="4.53" height="12.45"/><rect class="cls-2" x="579.4" y="797.73" width="1.64" height="6.12"/><rect class="cls-2" x="577.28" y="797.73" width="1.64" height="6.12"/><rect class="cls-2" x="498.81" y="800.62" width="4.53" height="12.45"/><rect class="cls-2" x="501.25" y="797.73" width="1.64" height="6.12"/><rect class="cls-2" x="499.13" y="797.73" width="1.64" height="6.12"/><polygon class="cls-2" points="471.2 857.72 492.59 804.15 587.99 804.15 609.38 857.72 471.2 857.72"/><rect class="cls-4" x="570.14" y="815.77" width="4.53" height="30.99"/><rect class="cls-4" x="505.97" y="815.77" width="4.53" height="30.99"/><polygon class="cls-2" points="564.39 871.67 539.14 866.27 516.02 871.67 516.02 861.74 564.39 861.74 564.39 871.67"/><rect class="cls-2" x="579.06" y="715.7" width="2" height="61.13"/><rect class="cls-2" x="499.69" y="715.7" width="2" height="61.13"/><path class="cls-2" d="M579.06,660.52v29h2V660.73C580.38,660.69,579.71,660.62,579.06,660.52Z"/><rect class="cls-2" x="499.69" y="645.62" width="2" height="43.9"/><path class="cls-2" d="M581.06,610.13v-7.67h-2v8C579.72,610.34,580.39,610.22,581.06,610.13Z"/><rect class="cls-2" x="499.69" y="602.46" width="2" height="24.37"/><rect class="cls-2" x="402.92" y="370.75" width="46.36" height="46.36" rx="17.52"/><rect class="cls-4" x="414.91" y="382.74" width="22.38" height="22.38" rx="11.19"/><path class="cls-5" d="M415.82,381.35a16.18,16.18,0,0,1,10.28-3.66h0a16.19,16.19,0,0,1,5.37.91"/><path class="cls-5" d="M417.35,407.62a16.22,16.22,0,0,1-7.5-13.69h0a16.26,16.26,0,0,1,1.49-6.8"/><path class="cls-5" d="M439.28,384.44a16.14,16.14,0,0,1,3.06,9.49h0a16.18,16.18,0,0,1-4.11,10.81"/><line class="cls-6" x1="442.79" y1="409.66" x2="448.11" y2="414.98"/><rect class="cls-2" x="441.01" y="407.92" width="5.65" height="5.65"/><line class="cls-6" x1="409.44" y1="410.95" x2="404.13" y2="416.26"/><rect class="cls-2" x="405.54" y="409.16" width="5.65" height="5.65" transform="translate(820.35 3.62) rotate(90)"/><line class="cls-6" x1="408.82" y1="378.26" x2="403.51" y2="372.94"/><rect class="cls-2" x="404.96" y="374.36" width="5.65" height="5.65" transform="translate(815.57 754.36) rotate(180)"/><line class="cls-6" x1="441.76" y1="376.64" x2="447.07" y2="371.33"/><rect class="cls-2" x="440.01" y="372.78" width="5.65" height="5.65" transform="translate(67.23 818.44) rotate(-90)"/><rect class="cls-2" x="427.51" y="469.72" width="46.36" height="46.36" rx="17.52" transform="translate(-42.22 943.59) rotate(-90)"/><rect class="cls-4" x="439.5" y="481.71" width="22.38" height="22.38" rx="11.19" transform="translate(-42.22 943.59) rotate(-90)"/><path class="cls-5" d="M438.1,503.18a16.18,16.18,0,0,1-3.66-10.28h0a16.19,16.19,0,0,1,.91-5.37"/><path class="cls-5" d="M464.38,501.65a16.24,16.24,0,0,1-13.69,7.5h0a16.3,16.3,0,0,1-6.81-1.49"/><path class="cls-5" d="M441.19,479.72a16.15,16.15,0,0,1,9.5-3.06h0a16.18,16.18,0,0,1,10.8,4.11"/><line class="cls-6" x1="466.42" y1="476.21" x2="471.73" y2="470.89"/><rect class="cls-2" x="464.67" y="472.34" width="5.65" height="5.65" transform="translate(-7.67 942.66) rotate(-90)"/><line class="cls-6" x1="467.7" y1="509.56" x2="473.01" y2="514.87"/><rect class="cls-2" x="465.91" y="507.81" width="5.65" height="5.65"/><line class="cls-6" x1="435.01" y1="510.18" x2="429.7" y2="515.49"/><rect class="cls-2" x="431.11" y="508.39" width="5.65" height="5.65" transform="translate(945.15 77.28) rotate(90)"/><line class="cls-6" x1="433.39" y1="477.24" x2="428.08" y2="471.93"/><rect class="cls-2" x="429.53" y="473.34" width="5.65" height="5.65" transform="translate(864.71 952.33) rotate(-180)"/><rect class="cls-2" x="385.17" y="572.05" width="46.36" height="46.36" rx="17.52" transform="translate(248.91 -108.78) rotate(21.69)"/><rect class="cls-4" x="397.16" y="584.04" width="22.38" height="22.38" rx="11.19" transform="translate(248.91 -108.78) rotate(21.69)"/><path class="cls-5" d="M403.45,579.74a16.22,16.22,0,0,1,10.91.39h0A16.21,16.21,0,0,1,419,583"/><path class="cls-5" d="M395.17,604.72a16.21,16.21,0,0,1-1.91-15.5h0a16.19,16.19,0,0,1,3.9-5.77"/><path class="cls-5" d="M424.11,591.28a16.18,16.18,0,0,1-.66,10h0a16.19,16.19,0,0,1-7.82,8.52"/><line class="cls-6" x1="418.05" y1="616.02" x2="421.02" y2="622.92"/><rect class="cls-2" x="415.79" y="614.58" width="5.65" height="5.65" transform="translate(257.83 -111) rotate(21.69)"/><line class="cls-6" x1="386.58" y1="604.88" x2="379.69" y2="607.85"/><rect class="cls-2" x="382.38" y="602.62" width="5.65" height="5.65" transform="translate(1090.15 471.29) rotate(111.69)"/><line class="cls-6" x1="398.09" y1="574.28" x2="395.12" y2="567.38"/><rect class="cls-2" x="394.7" y="570.07" width="5.65" height="5.65" transform="translate(555.16 1252.15) rotate(-158.31)"/><line class="cls-6" x1="429.3" y1="584.95" x2="436.19" y2="581.98"/><rect class="cls-2" x="427.85" y="581.56" width="5.65" height="5.65" transform="translate(-271.5 768.58) rotate(-68.31)"/><rect class="cls-2" x="575.16" y="399.75" width="46.36" height="46.36" rx="17.52"/><rect class="cls-4" x="587.15" y="411.74" width="22.38" height="22.38" rx="11.19"/><path class="cls-5" d="M588.06,410.35a16.19,16.19,0,0,1,10.28-3.67h0a16.19,16.19,0,0,1,5.37.92"/><path class="cls-5" d="M589.59,436.62a16.24,16.24,0,0,1-7.5-13.69h0a16.22,16.22,0,0,1,1.49-6.8"/><path class="cls-5" d="M611.52,413.44a16.14,16.14,0,0,1,3.06,9.49h0a16.21,16.21,0,0,1-4.12,10.81"/><line class="cls-6" x1="615.03" y1="438.66" x2="620.34" y2="443.97"/><rect class="cls-2" x="613.25" y="436.91" width="5.65" height="5.65"/><line class="cls-6" x1="581.68" y1="439.94" x2="576.37" y2="445.26"/><rect class="cls-2" x="577.78" y="438.16" width="5.65" height="5.65" transform="translate(1021.58 -139.62) rotate(90)"/><line class="cls-6" x1="581.06" y1="407.25" x2="575.75" y2="401.94"/><rect class="cls-2" x="577.2" y="403.35" width="5.65" height="5.65" transform="translate(1160.04 812.36) rotate(180)"/><line class="cls-6" x1="614" y1="405.64" x2="619.31" y2="400.33"/><rect class="cls-2" x="612.25" y="401.78" width="5.65" height="5.65" transform="translate(210.47 1019.67) rotate(-90)"/><rect class="cls-2" x="520.19" y="524.25" width="46.36" height="46.36" rx="17.52" transform="translate(546.24 -223.88) rotate(45)"/><rect class="cls-4" x="532.18" y="536.24" width="22.38" height="22.38" rx="11.19" transform="translate(546.24 -223.88) rotate(45)"/><path class="cls-5" d="M545,531.27a16.19,16.19,0,0,1,9.85,4.67h0a16.31,16.31,0,0,1,3.16,4.45"/><path class="cls-5" d="M527.5,550.93a16.23,16.23,0,0,1,4.38-15h0a16.16,16.16,0,0,1,5.86-3.75"/><path class="cls-5" d="M559.4,550a16.19,16.19,0,0,1-4.55,8.88h0a16.19,16.19,0,0,1-10.55,4.73"/><line class="cls-6" x1="544.05" y1="570.36" x2="544.05" y2="577.87"/><rect class="cls-2" x="541.2" y="569.03" width="5.65" height="5.65" transform="translate(563.7 -217.19) rotate(45)"/><line class="cls-6" x1="519.56" y1="547.68" x2="512.04" y2="547.68"/><rect class="cls-2" x="515.24" y="544.83" width="5.65" height="5.65" transform="translate(1271.64 568.58) rotate(135)"/><line class="cls-6" x1="542.23" y1="524.13" x2="542.23" y2="516.62"/><rect class="cls-2" x="539.44" y="519.81" width="5.65" height="5.65" transform="translate(556.14 1275.63) rotate(-135)"/><line class="cls-6" x1="566.67" y1="546.28" x2="574.18" y2="546.28"/><rect class="cls-2" x="565.34" y="543.48" width="5.65" height="5.65" transform="translate(-219.89 561.76) rotate(-45)"/><path class="cls-4" d="M592.54,608.63a.69.69,0,0,1,1.29.38c-.34,3.91.17,9.24,4.38,13,4.71,4.24,13.15-.78,18.7-5a.68.68,0,0,1,1,1c-4.6,6.06-11,15.47-10,20,1.48,7,21.54,17.46,20.06,17.46s-19.32-4.09-25.64-.75c-4.66,2.47-6.89,10-7.74,13.77a.68.68,0,0,1-1.29.13c-1.65-3.68-5.61-11.29-11.56-14.78S567.17,651.92,563,653a.69.69,0,0,1-.66-1.14c3.84-4.1,12.69-14.08,12.69-19,0-4.7-6.7-11.65-10.14-14.91a.68.68,0,0,1,.63-1.16c4.6,1.08,14.05,3,18.19,2C587.06,617.79,590.4,612.62,592.54,608.63Z"/><path class="cls-7" d="M567.55,626.39s4.73,3.13,4.38,6.81-8.64,10.45-8.64,10.45"/><path class="cls-7" d="M615.05,629.74s-4.73,3.13-4.37,6.8S619.32,647,619.32,647"/><path class="cls-7" d="M611.35,659s-4.63-3.27-7.93-1.61c-1.31.66-2.62,2.66-3.72,4.83"/><path class="cls-7" d="M576.11,615.45s5.2,2.27,8.09,0c1.14-.91,2-3.13,2.66-5.48"/><circle class="cls-2" cx="424.58" cy="629.26" r="1.64"/><circle class="cls-8" cx="370.66" cy="610.93" r="1.64"/><circle class="cls-2" cx="445.04" cy="579" r="1.64"/><circle class="cls-8" cx="455.63" cy="575.11" r="1.64"/><circle class="cls-2" cx="544.15" cy="584.06" r="1.64"/><circle class="cls-2" cx="583.62" cy="546.02" r="1.64"/><circle class="cls-8" cx="544.15" cy="596.14" r="1.64"/><circle class="cls-9" cx="544.15" cy="608.23" r="1.64"/><circle class="cls-8" cx="433.21" cy="644.51" r="1.64"/><circle class="cls-2" cx="424.34" cy="521.53" r="1.64"/><circle class="cls-2" cx="542.22" cy="507.51" r="1.64"/><circle class="cls-8" cx="542.22" cy="490.53" r="1.64"/><circle class="cls-8" cx="411.24" cy="532.78" r="1.64"/><path class="cls-4" d="M659,426.11c8.54,5.66,12.6,15.12,13.31,19.47s1.41,7.69,4.17,11.68c6.63,7.06,23.88,26.54,34,38.26,1.07-3.33,2-7.89,2-7.89s23.7,11.8,23.88,15.16c.14,2.79-4.72,10.58-6.92,13.91l0,0c-.31.46-.64.92-1,1.38h0a27,27,0,0,1-16.63,11.09C707.21,530.83,684,508.34,662.2,461,653,449.3,648.7,450,644,433.11S650.49,420.44,659,426.11Z"/><polygon id="Path-36" class="cls-4" points="808.34 443.32 796.42 439.72 793.98 415.58 798.4 410.45 800.43 402.97 806.16 402.39 809.07 397.02 807.54 391.27 805.75 389.55 808.19 379.57 770.1 376.57 767.87 377.8 762.77 387.67 760.02 398.86 762.36 408.43 766.7 414.32 772.95 418.41 775.29 418.17 777.23 440.49 760.73 439.73 775.86 457.01 808.57 457.92 808.34 443.32"/><path id="Path-32" class="cls-4" d="M854.89,883.23l.5,12.89c.11,2.9,5,31.83,2.46,32.56s-75.75,7.13-66.89,0,37-27.73,36.73-33.57c1.66-2.68.17-13.67.17-13.67Z"/><path id="Path-20" class="cls-10" d="M803.65,441.58q-4.41-1.2-7.23-1.86-.54-10.87-2.44-24.14a20,20,0,0,0,4.42-5.13,28.62,28.62,0,0,0,2-7.44q9.27-.21,8.52-7.69t-9.07-5.81"/><path id="Path-21" class="cls-10" d="M765.34,383.33q-6.44,10.73-5,18.28,3.85,15.19,15.68,17.12l1.19,21.76-8.31-.46"/><path id="Path-33" class="cls-4" d="M756.8,872.41l-.41,35.4L756.8,926l-65.35-1.05L689.51,923l.72-1.5c17.19-12.54,33-24.83,41.74-35.9l1.24-15Z"/><path id="Path-31" class="cls-11" d="M839.47,599.78l9.9,142,13.71,139.93q-22.77,4.05-34.07,4t-16.27-4l-14-133.13-9.6-93.83a45.79,45.79,0,0,1-8.85-.62,50.54,50.54,0,0,1-8.74-2.81l-5.92,94.3-4,126Q743.84,874.09,735,874a83.62,83.62,0,0,1-20.06-3.16l2.94-132.23L734,606Z"/><path id="Path-22" class="cls-10" d="M806.49,386.48a12.6,12.6,0,0,0-7.8-.81"/><path id="Path-23" class="cls-11" d="M807.73,383.78a26,26,0,0,0-10.61-1.66c-.4-1.3-.88-2.74-1.45-4.34q-8.59,11-27.87.84c-19.28-10.14.71-43.31,20.08-31.29q10.47,6.69,12,11.37,7.95.35,9.83,4.76Q813.38,369.36,807.73,383.78Z"/><path id="Path-24" class="cls-12" d="M809,442.32q-11,13.77-25,11c-14-2.81-18.31-6.7-20.71-13.75-8.71-2.57-25.2,4.93-31.15,10.73-19,19.48-20.63,38.91-20.63,38.91l21.91,13.76c-3.38,16.91-2.2,3.63-3.55,39.72q.06,23.88-1.44,61.32,39.82,10.69,60.13,9.69t55.36-15.46L831.8,513.58c1.74-.64,11.55-56.66,7.67-59.45S828.69,446.48,809,442.32Z"/><line id="Path-29" class="cls-10" x1="841.02" y1="585.79" x2="832.66" y2="521.96"/><path id="Path-32-2" data-name="Path-32" class="cls-10" d="M854.89,883.23l.5,12.89c.11,2.9,5,31.83,2.46,32.56s-75.75,7.13-66.89,0,37-27.73,36.73-33.57"/><path id="Path-33-2" data-name="Path-33" class="cls-10" d="M756.8,872.41q-1.18,28-.41,35.4A132.75,132.75,0,0,1,756.8,926l-65.35-1.05a2,2,0,0,1-1.94-1.93,1.79,1.79,0,0,1,.72-1.5Q732.07,890,732,885.57"/><path class="cls-10" d="M716.59,527.73a27.94,27.94,0,0,1-4.76,1.47C707.21,530.83,684,508.34,662.2,461,653,449.3,648.7,450,644,433.11s6.53-12.67,15.07-7,12.6,15.12,13.31,19.47,1.41,7.69,4.17,11.68c3.88,4.14,11.41,12.53,19,21.13"/><line class="cls-10" x1="711.4" y1="491.13" x2="710.51" y2="495.57"/><path id="Path-27" class="cls-4" d="M668.09,440.85q-7.59-7.77-9.22-3.1t10.5,20.3"/><path id="Path-27-2" data-name="Path-27" class="cls-10" d="M668.09,440.85q-7.59-7.77-9.22-3.1t10.5,20.3"/><path class="cls-12" d="M728.87,518.79l-10.46.18a3.51,3.51,0,0,1-3.17-1.56l-17.87-30.23c-1.36-2.3.68-4.58,3.82-4.66l11.93.18a3.49,3.49,0,0,1,3.18,1.56L733,513.33C734.3,515.63,732,518.71,728.87,518.79Z"/><path class="cls-13" d="M731.9,510.54l-17.14-27.6-14.11-.14c-4.09-.22-3.28,4.38-3.28,4.38l14.62-.05,13.56,21.28"/><ellipse class="cls-14" cx="702.31" cy="490.58" rx="0.91" ry="1.04" transform="translate(-129.09 284) rotate(-20.98)"/><line class="cls-15" x1="714.37" y1="486.81" x2="716.69" y2="490.37"/><path id="Path-30" class="cls-4" d="M797.13,506.32l-6.34,7.78-57-7.56c1.57-3.64-25.67-20-32-2.47s28.09,19.31,31.92,20.4c2.21.63,63.65,15.95,78.32,8.11,0,0,21-13.13,17.08-21.4S811.69,502.69,797.13,506.32Z"/><path id="Path-30-2" data-name="Path-30" class="cls-10" d="M820.57,524.12l-8.48,8.46c-14.67,7.84-76.11-7.48-78.32-8.11-3.83-1.09-38.21-2.91-31.92-20.4s33.54-1.17,32,2.47l57,7.56"/><path id="Path-24-2" data-name="Path-24" class="cls-12" d="M824,451c-10.6,7.35-29.84,45.37-31.2,56.4,15.48,16.73,33.38,12.69,39.66,8.73s14.43-29.35,13.58-50.74C845.54,457.24,831.65,444.44,824,451Z"/><path class="cls-10" d="M808.11,477.64c-5.47,3.79-9.55,18.74-9.21,22"/><rect class="cls-16" width="1200" height="1200"/></svg>