<?xml version="1.0" standalone="no"?>
<svg xmlns="http://www.w3.org/2000/svg" xmlns:xlink="http://www.w3.org/1999/xlink">
  <defs>
    <pattern id="doodad" width="136.25" height="118" viewBox="0 0 34.64101615137755 30" patternUnits="userSpaceOnUse" patternTransform="rotate(140)">
      <rect width="100%" height="100%" fill="rgba(214, 158, 46,0)"/>
      <path d="M-20-20h200v200h-200M34.21 25.25L25.98 20.5L17.75 25.25L17.75 34.75L25.98 39.5L34.21 34.75zM16.89 25.25L8.66 20.5L0.43 25.25L0.43 34.75L8.66 39.5L16.89 34.75zM8.23 10.25L0 5.5L-8.23 10.25L-8.23 19.75L0 24.5L8.23 19.75zM16.89-4.75L8.66-9.5L0.43-4.75L0.43 4.75L8.66 9.5L16.89 4.75zM34.21-4.75L25.98-9.5L17.75-4.75L17.75 4.75L25.98 9.5L34.21 4.75zM42.87 10.25L34.64 5.5L26.41 10.25L26.41 19.75L34.64 24.5L42.87 19.75zM25.55 10.25L17.32 5.5L9.09 10.25L9.09 19.75L17.32 24.5L25.55 19.75z" fill="rgba(45, 55, 72,1)" filter="url(#filter-doodad-1)"/>
      <path d="M-20-20h200v200h-200M24.34 25.75L16.98 21.5L9.62 25.75L9.62 34.25L16.98 38.5L24.34 34.25zM7.02 25.75L-0.34 21.5L-7.7 25.75L-7.7 34.25L-0.34 38.5L7.02 34.25zM-1.64 10.75L-9 6.5L-16.36 10.75L-16.36 19.25L-9 23.5L-1.64 19.25zM7.02-4.25L-0.34-8.5L-7.7-4.25L-7.7 4.25L-0.34 8.5L7.02 4.25zM24.34-4.25L16.98-8.5L9.62-4.25L9.62 4.25L16.98 8.5L24.34 4.25zM33 10.75L25.64 6.5L18.28 10.75L18.28 19.25L25.64 23.5L33 19.25zM41.66 25.75L34.3 21.5L26.94 25.75L26.94 34.25L34.3 38.5L41.66 34.25zM15.68 40.75L8.32 36.5L0.96 40.75L0.96 49.25L8.32 53.5L15.68 49.25zM-10.3 25.75L-17.66 21.5L-25.02 25.75L-25.02 34.25L-17.66 38.5L-10.3 34.25zM-10.3-4.25L-17.66-8.5L-25.02-4.25L-25.02 4.25L-17.66 8.5L-10.3 4.25zM15.68-19.25L8.32-23.5L0.96-19.25L0.96-10.75L8.32-6.5L15.68-10.75zM41.66-4.25L34.3-8.5L26.94-4.25L26.94 4.25L34.3 8.5L41.66 4.25zM33 40.75L25.64 36.5L18.28 40.75L18.28 49.25L25.64 53.5L33 49.25zM-1.64 40.75L-9 36.5L-16.36 40.75L-16.36 49.25L-9 53.5L-1.64 49.25zM-18.96 10.75L-26.32 6.5L-33.68 10.75L-33.68 19.25L-26.32 23.5L-18.96 19.25zM-1.64-19.25L-9-23.5L-16.36-19.25L-16.36-10.75L-9-6.5L-1.64-10.75zM33-19.25L25.64-23.5L18.28-19.25L18.28-10.75L25.64-6.5L33-10.75zM50.32 10.75L42.96 6.5L35.6 10.75L35.6 19.25L42.96 23.5L50.32 19.25zM15.68 10.75L8.32 6.5L0.96 10.75L0.96 19.25L8.32 23.5L15.68 19.25z" fill="rgba(247, 250, 252,1)" filter="url(#filter-doodad-2)"/>
    </pattern>
    <filter id="filter-doodad-1">
      <feTurbulence baseFrequency="1" numOctaves="2" type="fractalNoise" result="result1"/>
      <feDisplacementMap in2="result1" scale="4" result="result2" xChannelSelector="R" in="SourceGraphic"/>
      <feComposite in2="result2" in="SourceGraphic" operator="atop" result="fbSourceGraphic"/>
    </filter>
    <filter id="filter-doodad-2">
      <feTurbulence baseFrequency="1" numOctaves="2" type="fractalNoise" result="result1"/>
      <feDisplacementMap in2="result1" scale="7" result="result2" xChannelSelector="R" in="SourceGraphic"/>
      <feComposite in2="result2" in="SourceGraphic" operator="atop" result="fbSourceGraphic"/>
    </filter>
  </defs>
  <rect fill="url(#doodad)" height="200%" width="200%"/>
</svg>
