<svg xmlns="http://www.w3.org/2000/svg" xmlns:xlink="http://www.w3.org/1999/xlink" viewBox="0 0 32 32">
  <defs>
    <clipPath id="clip-path">
      <rect id="Rectangle_53" data-name="Rectangle 53" width="32" height="32" transform="translate(252 7149)" fill="#fff" stroke="#707070" stroke-width="1"/>
    </clipPath>
  </defs>
  <g id="Mask_Group_27" data-name="Mask Group 27" transform="translate(-252 -7149)" clip-path="url(#clip-path)">
    <path id="twitter_5_" data-name="twitter (5)" d="M16,0A16,16,0,1,0,32,16,16,16,0,0,0,16,0Zm7.305,12.475q.011.236.01.475A10.378,10.378,0,0,1,12.867,23.4h0a10.4,10.4,0,0,1-5.629-1.65,7.469,7.469,0,0,0,.876.051,7.369,7.369,0,0,0,4.561-1.572,3.677,3.677,0,0,1-3.431-2.551,3.66,3.66,0,0,0,1.659-.063,3.673,3.673,0,0,1-2.946-3.6c0-.017,0-.031,0-.047a3.647,3.647,0,0,0,1.663.459,3.676,3.676,0,0,1-1.137-4.9,10.427,10.427,0,0,0,7.57,3.837,3.674,3.674,0,0,1,6.258-3.349,7.366,7.366,0,0,0,2.332-.891,3.687,3.687,0,0,1-1.615,2.031,7.324,7.324,0,0,0,2.109-.578A7.463,7.463,0,0,1,23.305,12.475Zm0,0" transform="translate(252 7149)" fill="#fff"/>
  </g>
</svg>
