<svg id="web" xmlns="http://www.w3.org/2000/svg" viewBox="0 0 1046 572.19">
  <g id="Rectangle_7" data-name="Rectangle 7" fill="#e6e6e6" stroke="#707070" stroke-width="1">
    <rect width="876" height="572" stroke="none"/>
    <rect x="0.5" y="0.5" width="875" height="571" fill="none"/>
  </g>
  <circle id="Ellipse_1" data-name="Ellipse 1" cx="123" cy="123" r="123" transform="translate(800 210.19)" fill="#f2f2f2"/>
  <circle id="Ellipse_2" data-name="Ellipse 2" cx="123" cy="123" r="123" transform="translate(780 192.19)" fill="#6c63ff"/>
  <rect id="Rectangle_1" data-name="Rectangle 1" width="158.412" height="1.875" transform="translate(715.73 569.865)" fill="#3f3d56"/>
  <circle id="Ellipse_17" data-name="Ellipse 17" cx="153" cy="153" r="153" transform="translate(642 266.19)" fill="#e6e6e6"/>
  <path id="Path_1" data-name="Path 1" d="M719,583.095c0-84.364,68.636-153,153-153s153,68.636,153,153-68.636,153-153,153S719,667.459,719,583.095Zm2,0c0,83.262,67.738,151,151,151s151-67.738,151-151-67.738-151-151-151S721,499.833,721,583.095Z" transform="translate(-77 -163.905)" fill="#3f3d56"/>
  <path id="Path_2" data-name="Path 2" d="M751,308.905l-673-100-.5,525.5h874Zm-494,195c-.338,0-.667-.033-1-.05v40.05H148v-108h42a19,19,0,0,1,38,0h28v30.05c.333-.017.662-.05,1-.05a19,19,0,0,1,0,38Zm413.5-29.5a155.367,155.367,0,0,1-14.16,65.02q-1.515,3.315-3.19,6.54a155.094,155.094,0,0,1-15.77,24.56q-4.62,5.895-9.77,11.31-3.78,3.99-7.84,7.7a155.408,155.408,0,0,1-85.33,39.61,158.018,158.018,0,0,1-19.94,1.26,156,156,0,0,1-13.15-311.45l1.07-.09c2.72-.21,5.47-.35,8.23-.41,1.28-.03,2.56-.05,3.85-.05a156.338,156.338,0,0,1,26.04,2.17c1.19.19,2.37.41,3.55.63.73.14,1.45.29,2.17.44A156.03,156.03,0,0,1,670.5,474.4Z" transform="translate(-77 -163.905)" fill="#3f3d56"/>
  <rect id="Rectangle_2" data-name="Rectangle 2" width="179.127" height="2.013" transform="translate(651.261 58.046)" fill="#3f3d56"/>
  <rect id="Rectangle_3" data-name="Rectangle 3" width="179.127" height="2.013" transform="translate(651.261 72.135)" fill="#3f3d56"/>
  <rect id="Rectangle_4" data-name="Rectangle 4" width="179.127" height="2.013" transform="translate(651.261 86.224)" fill="#3f3d56"/>
  <!-- <path id="Path_3" data-name="Path 3" d="M953,735.905H77v-572H953Zm-874-2H951v-568H79Z" transform="translate(-77 -163.905)" fill="#3f3d56"/> -->
  <path id="Path_4" data-name="Path 4" d="M512.254,220.058h0c-30.181,8.176-47.293,41.957-38.219,75.451l11.528,42.555,13.088-3.545,3.306-17.82,2.377,16.28,84.125-22.789,3.005-16.2,2.161,14.8,9.472-2.566-9.052-33.413C583.6,234.268,546.985,210.649,512.254,220.058Z" transform="translate(-77 -163.905)" fill="#2f2e41"/>
  <path id="Path_5" data-name="Path 5" d="M545.441,412.19l-10,54,33-5,1.5-56.5Z" fill="#ffb8b8"/>
  <circle id="Ellipse_3" data-name="Ellipse 3" cx="36" cy="36" r="36" transform="translate(410.441 80.19)" fill="#ffb8b8"/>
  <path id="Path_6" data-name="Path 6" d="M434.941,142.69l-2,20-16,9,42,93,32-77-21-16-2-38Z" fill="#ffb8b8"/>
  <path id="Path_7" data-name="Path 7" d="M709.44,530.1c-1.26,20.8-36.69,37.23-62.71,46.53-7.5,2.69-14.22,4.78-19.12,6.21-3.05.89-5.39,1.53-6.77,1.9-.91.24-1.4.36-1.4.36v-22l-85,7v60.05a158.018,158.018,0,0,1-19.94,1.26,155.3,155.3,0,0,1-75.17-19.27q-.855-11.265-1.89-23.04c-.74-8.46-1.06-16.5-1.03-24.12.24-59.59,21.97-93.62,30.58-104.76a50.242,50.242,0,0,1,3.45-4.12l5-13-3.62-23.08L459.6,342.1l-.16-1c4.2-3.68,15.33-6.03,24.93-7.42,6.44-.94,12.2-1.45,14.74-1.66.8-.06,1.28-.09,1.37-.1h.01l40.95,74.18,14.1-63.95,38.9,17.95s-6,25-6,46a33.054,33.054,0,0,1-1.08,8.32,48.1,48.1,0,0,1-8.31,16.61,66.8,66.8,0,0,1-11.61,12.07l-8,22,8,30,55.07-16.42,19.43-5.79a38.206,38.206,0,0,1,4.99-1.13,38.939,38.939,0,0,1,39.87,19.02Z" transform="translate(-77 -163.905)" fill="#2f2e41"/>
  <path id="Path_8" data-name="Path 8" d="M615.441,621.095s28.615,2.807,34.307-10.1l28.693,23.1s51.965,13.917,23,26c-27,11.263-54-.762-54,2,0,0-8-7-17-2s-36,0-35-8S600.441,615.095,615.441,621.095Z" transform="translate(-77 -163.905)" fill="#2f2e41"/>
  <path id="Path_9" data-name="Path 9" d="M532.315,232.556c-7.4-5.579-16.706-7.861-25.74-5.414l-1.073.291c-20.686,5.6-32.385,28.865-26.13,51.956h0l6.931-1.878-1.189-8.824,3.949,8.076,41.11-11.136,1.492-8.142,1.092,7.442,8.088-2.191q13.277,26.58-1.036,60.633l13.777-3.732,2.983-16.283,2.183,14.884,26.262-7.114L581.2,276.564C574.471,251.731,554.338,234.582,532.315,232.556Z" transform="translate(-77 -163.905)" fill="#2f2e41"/>
  <circle id="Ellipse_4" data-name="Ellipse 4" cx="18" cy="18" r="18" transform="translate(445.941 28.69)" fill="#2f2e41"/>
  <path id="Path_10" data-name="Path 10" d="M539.941,220.595a17.99,17.99,0,0,1-6.333-34.832,17.989,17.989,0,1,0,8.667,34.664,18.07,18.07,0,0,1-2.333.168Z" transform="translate(-77 -163.905)" fill="#2f2e41"/>
  <ellipse id="Ellipse_5" data-name="Ellipse 5" cx="4.5" cy="6.5" rx="4.5" ry="6.5" transform="translate(464.941 109.69)" fill="#ffb8b8"/>
  <path id="Path_11" data-name="Path 11" d="M448.441,401.095l-3,40s-14,22-17,69l-1,29s-21,41-4,40,16-39,16-39l30-87v-42Z" transform="translate(-77 -163.905)" fill="#ffb8b8"/>
  <path id="Path_12" data-name="Path 12" d="M466.441,342.095h-7s-11,7-20,37-10,31-10,31l47,11Z" transform="translate(-77 -163.905)" fill="#2f2e41"/>
  <circle id="Ellipse_6" data-name="Ellipse 6" cx="9.114" cy="9.114" r="9.114" transform="translate(607.053 173.953)" fill="#d0cde1"/>
  <circle id="Ellipse_7" data-name="Ellipse 7" cx="4.051" cy="4.051" r="4.051" transform="translate(665.318 348.684)" fill="#d0cde1"/>
  <circle id="Ellipse_8" data-name="Ellipse 8" cx="4.051" cy="4.051" r="4.051" transform="translate(608.318 537.684)" fill="#d0cde1"/>
  <circle id="Ellipse_9" data-name="Ellipse 9" cx="4.051" cy="4.051" r="4.051" transform="translate(66.318 525.684)" fill="#d0cde1"/>
  <circle id="Ellipse_10" data-name="Ellipse 10" cx="4.051" cy="4.051" r="4.051" transform="translate(257.318 179.684)" fill="#d0cde1"/>
  <path id="Path_13" data-name="Path 13" d="M671.621,256.446H669.6v-2.025h-1.013v2.025h-2.025v1.013h2.025v2.025H669.6v-2.025h2.025Z" fill="#d0cde1"/>
  <path id="Path_14" data-name="Path 14" d="M740.621,446.446H738.6v-2.025h-1.013v2.025h-2.025v1.013h2.025v2.025H738.6v-2.025h2.025Z" fill="#d0cde1"/>
  <path id="Path_15" data-name="Path 15" d="M510.621,530.446H508.6v-2.025h-1.013v2.025h-2.025v1.013h2.025v2.025H508.6v-2.025h2.025Z" fill="#d0cde1"/>
  <path id="Path_16" data-name="Path 16" d="M378.621,138.446H376.6v-2.025h-1.013v2.025h-2.025v1.013h2.025v2.025H376.6v-2.025h2.025Z" fill="#d0cde1"/>
  <path id="Path_17" data-name="Path 17" d="M20.621,217.446H18.6v-2.025H17.583v2.025H15.558v1.013h2.025v2.025H18.6v-2.025h2.025Z" fill="#d0cde1"/>
  <path id="Path_18" data-name="Path 18" d="M59.621,146.446H57.6v-2.025H56.583v2.025H54.558v1.013h2.025v2.025H57.6v-2.025h2.025Z" fill="#d0cde1"/>
  <path id="Path_19" data-name="Path 19" d="M342.621,533.446H340.6v-2.025h-1.013v2.025h-2.025v1.013h2.025v2.025H340.6v-2.025h2.025Z" fill="#d0cde1"/>
  <path id="Path_20" data-name="Path 20" d="M190.621,115.446H188.6v-2.025h-1.013v2.025h-2.025v1.013h2.025v2.025H188.6v-2.025h2.025Z" fill="#d0cde1"/>
  <path id="Path_21" data-name="Path 21" d="M23.621,348.446H21.6v-2.025H20.583v2.025H18.558v1.013h2.025v2.025H21.6v-2.025h2.025Z" fill="#d0cde1"/>
  <path id="Path_22" data-name="Path 22" d="M176.621,235.446H174.6v-2.025h-1.013v2.025h-2.025v1.013h2.025v2.025H174.6v-2.025h2.025Z" fill="#d0cde1"/>
  <path id="Path_23" data-name="Path 23" d="M179.621,525.446H177.6v-2.025h-1.013v2.025h-2.025v1.013h2.025v2.025H177.6v-2.025h2.025Z" fill="#d0cde1"/>
  <path id="Path_24" data-name="Path 24" d="M270.621,460.446H268.6v-2.025h-1.013v2.025h-2.025v1.013h2.025v2.025H268.6v-2.025h2.025Z" fill="#d0cde1"/>
  <path id="Path_25" data-name="Path 25" d="M771.621,538.446H769.6v-2.025h-1.013v2.025h-2.025v1.013h2.025v2.025H769.6v-2.025h2.025Z" fill="#d0cde1"/>
  <circle id="Ellipse_11" data-name="Ellipse 11" cx="10" cy="10" r="10" transform="translate(17 11)" fill="#6c63ff"/>
  <circle id="Ellipse_12" data-name="Ellipse 12" cx="10" cy="10" r="10" transform="translate(47 11)" fill="#6c63ff"/>
  <circle id="Ellipse_13" data-name="Ellipse 13" cx="10" cy="10" r="10" transform="translate(77 11)" fill="#6c63ff"/>
  <rect id="Rectangle_5" data-name="Rectangle 5" width="179.127" height="2.013" transform="translate(480.261 498.224)" fill="#d0cde1"/>
  <rect id="Rectangle_6" data-name="Rectangle 6" width="108" height="108" transform="translate(472 360)" fill="#6c63ff"/>
  <path id="Path_26" data-name="Path 26" d="M570,607.905v-84h-2v86h89v-2Z" transform="translate(-77 -163.905)" fill="#d0cde1"/>
  <path id="Path_27" data-name="Path 27" d="M612.441,398.095l16,39s17,20,20,42l5,26s12,46-7,44-14-46-14-46l-3-13-17-28-25.085-47.68Z" transform="translate(-77 -163.905)" fill="#ffb8b8"/>
  <path id="Path_28" data-name="Path 28" d="M504.441,192.19l13,4,28,42-51,34Z" fill="#2f2e41"/>
  <circle id="Ellipse_14" data-name="Ellipse 14" cx="25" cy="25" r="25" transform="translate(507 378)" fill="#d0cde1"/>
  <circle id="Ellipse_15" data-name="Ellipse 15" cx="19" cy="19" r="19" transform="translate(507 338)" fill="#6c63ff"/>
  <circle id="Ellipse_16" data-name="Ellipse 16" cx="19" cy="19" r="19" transform="translate(561 391)" fill="#6c63ff"/>
</svg>
